<svg width="780" height="283" viewBox="0 0 780 283" fill="none" xmlns="http://www.w3.org/2000/svg">
<path d="M-216.774 187.321C-153.2 142.522 -102.686 104.909 -50.0318 70.5175C7.98926 32.6344 72.9918 11.7826 141.714 4.72352C335.167 -14.9458 508.966 34.4842 659.654 158.173C709.444 198.988 748.382 249.096 767.201 311.99C795.303 406.052 772.519 489.149 708.14 561.71C662.652 612.857 606.713 650.68 547.705 684.139C444.481 742.617 334.319 785.893 225.084 831.111C217.947 833.665 210.951 836.596 204.125 839.893C151.206 868.903 94.9485 870.699 37.4448 861.266C-81.0763 841.928 -190.871 800.933 -287.513 728.422C-330.382 696.258 -367.318 658.126 -388.547 608.096C-414.77 546.235 -426.951 482.235 -407.433 415.592C-393.49 368.033 -366.616 327.666 -331.877 293.446C-291.311 253.294 -248.107 215.977 -216.774 187.321Z" fill="#CDEAF7"/>
</svg>
